<?xml version="1.0" encoding="iso-8859-1"?>
<!-- Uploaded to: SVG Repo, www.svgrepo.com, Generator: SVG Repo Mixer Tools -->
<!DOCTYPE svg PUBLIC "-//W3C//DTD SVG 1.1//EN" "http://www.w3.org/Graphics/SVG/1.1/DTD/svg11.dtd">
<svg fill="#000000" height="800px" width="800px" version="1.1" id="Capa_1" xmlns="http://www.w3.org/2000/svg" xmlns:xlink="http://www.w3.org/1999/xlink" 
	 viewBox="0 0 360.522 360.522" xml:space="preserve">
<g>
	<path d="M330.964,150.736c-18.371-48.893-79.787-82.795-150.702-82.795c-70.916,0-132.332,33.903-150.703,82.795
		C13.138,151.46,0,165.046,0,181.643c0,16.968,13.731,30.79,30.666,30.937c19.63,47.248,80.588,80.002,149.596,80.002
		c69.007,0,129.965-32.755,149.596-80.002c16.935-0.146,30.665-13.968,30.665-30.937
		C360.522,165.046,347.386,151.46,330.964,150.736z M329.585,204.58c-0.64,0-1.31-0.032-2.048-0.097
		c-1.789-0.165-3.461,0.893-4.094,2.571c-17.247,45.647-76.126,77.527-143.182,77.527c-67.057,0-125.936-31.88-143.182-77.527
		c-0.592-1.567-2.09-2.586-3.74-2.586c-0.117,0-0.234,0.005-0.354,0.016c-0.739,0.065-1.409,0.097-2.049,0.097
		C18.29,204.58,8,194.291,8,181.643c0-12.647,10.29-22.937,22.938-22.937c0.411,0,0.82,0.012,1.227,0.034
		c1.766,0.082,3.421-1.013,3.997-2.71c7.558-22.282,25.774-42.534,51.294-57.024c26.573-15.089,58.665-23.064,92.807-23.064
		s66.233,7.976,92.806,23.064c25.52,14.491,43.736,34.743,51.294,57.024c0.575,1.697,2.213,2.793,3.997,2.71
		c0.406-0.021,0.815-0.034,1.227-0.034c12.647,0,22.938,10.29,22.938,22.937C352.522,194.291,342.232,204.58,329.585,204.58z"/>
	<path d="M241.604,96.976c-4.544-1.477-9.301-2.731-14.138-3.729c-2.173-0.448-4.28,0.946-4.727,3.109s0.946,4.279,3.109,4.726
		c4.549,0.938,9.018,2.117,13.282,3.503c0.411,0.133,0.827,0.197,1.237,0.197c1.686,0,3.254-1.074,3.803-2.765
		C244.855,99.915,243.705,97.658,241.604,96.976z"/>
	<path d="M264.359,107.081c-1.911-1.109-4.357-0.458-5.467,1.453c-1.108,1.911-0.458,4.358,1.453,5.467
		c32.392,18.79,42.201,48.141,42.297,48.435c0.546,1.695,2.116,2.775,3.807,2.775c0.403,0,0.814-0.062,1.22-0.191
		c2.104-0.673,3.265-2.924,2.591-5.029C309.838,158.674,299.528,127.482,264.359,107.081z"/>
</g>
</svg>